<?xml version="1.0" ?><svg viewBox="0 0 512 512" xmlns="http://www.w3.org/2000/svg"><g id="Family"><path d="M495.3434,385.8088a11.6468,11.6468,0,0,0-.7139-7.4348c-8.6074-19.2226-17.6171-47.8662-25.2949-73.3506-7.4067-24.5883-23.6181-31.2675-32.5054-34.0085a34.36,34.36,0,0,0,2.07-11.7737c0-.9971-.0581-1.9795-.1421-2.9551h7.102a5.6607,5.6607,0,0,0,5.7115-4.959,5.5017,5.5017,0,0,0-5.4742-6.041h-7.1972V228.3818a25.711,25.711,0,0,0-25.711-25.7109H396.0807A25.7109,25.7109,0,0,0,370.37,228.3818v16.9043h-6.961a5.6606,5.6606,0,0,0-5.7114,4.959,5.5016,5.5016,0,0,0,5.4741,6.041h6.8228c-.084.9756-.1421,1.958-.1421,2.9551a34.3693,34.3693,0,0,0,1.779,10.9165c-8.3557,2.3735-21.5856,8.4907-28.6267,24.0484a45.6631,45.6631,0,0,0-3.7177,14.0732l-.4009,3.8145a56.8423,56.8423,0,0,0-25.4707-18.8074,34.4152,34.4152,0,0,0,3.7344-32.0618A23.65,23.65,0,1,0,281.3842,239.4a34.4935,34.4935,0,0,0-25.4573,52.9439c-8.8555,2.6206-29.0859,10.8662-35.0825,32.5156-1.9522,7.049-4.011,13.4433-6.3213,19.5468-8.2654-12.0063-20.8945-15.5913-26.4795-16.6152-.043-.0078-.0859-.0146-.1289-.0215l-1.2817-.2033a31.3953,31.3953,0,0,0-49.1924-39.0071c-9.0352-10.9434-21.35-14.4024-27.0415-15.4458-.043-.0078-.086-.0147-.1289-.0215l-2.5459-.4038a34.36,34.36,0,0,0,7.789-21.815c0-1.1467-.0759-2.2746-.1862-3.3928a22.4457,22.4457,0,0,0-15.4544-41.7175,2.3617,2.3617,0,0,1-2.2715-.8018,22.4445,22.4445,0,0,0-33.74,0,2.3586,2.3586,0,0,1-2.2735.8008A22.4593,22.4593,0,0,0,34.2721,226.13a22.4093,22.4093,0,0,0,12.3487,21.6069c-.095,1.034-.1543,2.0779-.1543,3.1362a34.3641,34.3641,0,0,0,7.864,21.91l-1.9451.3086c-.043.0068-.0859.0137-.1289.0215-7.11,1.3027-24.5645,6.3555-33.04,25.0849a45.7633,45.7633,0,0,0-3.7217,14.1065L8.53,382.5215a11.129,11.129,0,0,0,11.222,12.1728h19.16l-6.8376,93.3311a10.36,10.36,0,0,0,8.376,10.9321,10.6266,10.6266,0,0,0,2.1059.19H66.2614a10.3774,10.3774,0,0,0,10.3447-9.7383l4.6807-77.6006c.0039-.082.1484-.0781.1533,0L86.1129,489.41a10.3774,10.3774,0,0,0,10.3448,9.7373h51.7295a9.8391,9.8391,0,0,0,9.82-9.1729l.622-46.42a3.04,3.04,0,0,1,6.08.0005l.6135,46.3447a9.8556,9.8556,0,0,0,9.8242,9.2481h21.137a10.18,10.18,0,0,0,3.4546-.5552,9.8565,9.8565,0,0,0,6.5442-10.0347l-4.2461-51.05h14.8484a10.84,10.84,0,0,0,3.7692-.6225,10.5521,10.5521,0,0,0,6.9048-10.9244l-2.656-26.78a11.2514,11.2514,0,0,0,5.5447-3.2864c9.1543-24.3659,14.0234-53.1745,14.0757-53.4873a4,4,0,0,1,7.8916,1.3145c-.2244,1.345-5.3076,31.42-15.1775,56.8281l-2.6277,33.916a5.5185,5.5185,0,0,0,3.2339,5.4512,5.6267,5.6267,0,0,0,2.3525.4736H251.069l1.9277,49.24a9.5066,9.5066,0,0,0,9.5283,9.165h42.2872a9.51,9.51,0,0,0,9.5293-9.1631l1.9277-49.2422H327.432a5.71,5.71,0,0,0,2.4136-.49,5.5106,5.5106,0,0,0,3.1882-5.5983L330.77,413.2935a55.0186,55.0186,0,0,1-12.9341-6.9849,13.8991,13.8991,0,0,1-4.5376-16.6611c9.5757-22.5928,3.91-45.3555,3.8516-45.583a4,4,0,0,1,7.7446-2.0059c.2676,1.0312,6.437,25.541-4.2305,50.7109a5.9236,5.9236,0,0,0,1.9248,7.1035,52.1587,52.1587,0,0,0,18.6333,8.3282c.0589.0144.11.0427.1675.06h18.6643L354.6852,487.83a10.362,10.362,0,0,0,10.34,11.06h23.8819a10.3781,10.3781,0,0,0,10.3457-9.7373l.6372-73.1753a4.1126,4.1126,0,0,1,8.2248,0l.6448,73.1758a10.3772,10.3772,0,0,0,10.3447,9.7373h23.8516a10.3633,10.3633,0,0,0,10.3359-11.122l-8.6992-118.4822c.6614,1.7824,1.0552,2.8237,1.0684,2.8581,3.8462,10.5743,7.6418,19.1138,10.1946,24.5044a12.1022,12.1022,0,0,0,6.4013,6.1638,11.786,11.786,0,0,0,4.32.8279,11.5442,11.5442,0,0,0,3.2617-.4912v90a5.6606,5.6606,0,0,0,4.959,5.7114,5.5016,5.5016,0,0,0,6.041-5.4741v-90.6a7.5541,7.5541,0,0,1,1.7744-4.9863,7.1253,7.1253,0,0,1,5.5586-2.502,7.282,7.282,0,0,1,7.1846,7.2578v5.836a5.6606,5.6606,0,0,0,4.959,5.7114,5.5016,5.5016,0,0,0,6.041-5.4741v-6.0733A18.3288,18.3288,0,0,0,495.3434,385.8088Zm-353.3-75.11a4.7959,4.7959,0,0,1,4.7961-4.7959h29.6836a4.7959,4.7959,0,0,1,4.7961,4.7959v.0572a16.2984,16.2984,0,0,1-2.6379,9.0146,20.362,20.362,0,0,1-34.4558-.72,15.9181,15.9181,0,0,1-2.1821-8.2512ZM57.5,250.0994a22.4057,22.4057,0,0,0,16.3232-7.9441,1.9527,1.9527,0,0,1,1.9248-.4912,22.6019,22.6019,0,0,0,9.9639.0009,1.9558,1.9558,0,0,1,1.9287.4912,22.406,22.406,0,0,0,16.8447,7.9576c.0083.2534.0283.5039.0283.7592a23.5234,23.5234,0,1,1-47.0468,0C57.4665,250.6123,57.4911,250.3579,57.5,250.0994Zm36.4355,32.7693a14.1617,14.1617,0,0,1-28.3232-.0757,5.5316,5.5316,0,0,0-.0428-.6563l.2771-.0439c.0984-.0157.1929-.04.2891-.0611a34.4436,34.4436,0,0,0,27.8.837Zm23.1824,205.2788h-20.06l-4.6367-77.003a11.0774,11.0774,0,0,0-22.1143.002l-4.6445,77.001H43.0944l9.1167-124.4366h50.3681L96.402,425.9951a10.5375,10.5375,0,0,0,10.4932,11.5127h15.13Zm84.0044-61.64-4.2014-50.5127a5.5,5.5,0,1,0-10.9629.9121l1.4824,17.8233h-50.218l1.72-17.7491a5.5,5.5,0,0,0-10.9492-1.06l-4.9021,50.5869H107.4049l6.1582-62.0849a30.4332,30.4332,0,0,1,2.4512-9.3643c5.3213-11.7578,15.9316-15.3438,21.8281-16.4365l9.9825-1.584h.7221a31.3038,31.3038,0,0,0,26.2686,0H176.14l9.9824,1.584c5.8965,1.0927,16.5068,4.6787,21.8281,16.4365a30.3879,30.3879,0,0,1,2.4483,9.33l6.1611,62.1191Zm77.0466,61.2881H263.9333l-1.8555-47.4053h16.0908Zm25.2363,0H289.1686V440.3906H305.26Zm3.3572-207.0068c-2.9331,8.8281-8.8208,16.47-21.779,16.47-12.9134,0-18.8055-7.5889-21.7493-16.3779a2.96,2.96,0,0,1,2.7844-3.9273h37.93A2.94,2.94,0,0,1,306.7621,280.7891Zm-44.6467-12.5537a23.5181,23.5181,0,0,1,45.7344,0Zm49.4455-16.5069a34.56,34.56,0,0,0-19.1858-11.7114,12.6464,12.6464,0,1,1,19.1858,11.7114Zm69.2913,7.4827a2.98,2.98,0,0,1,3.0059-2.9251h41.0351a2.98,2.98,0,0,1,3.0059,2.9251v.03a23.5235,23.5235,0,0,1-47.0469,0Zm103.416,124.5642-17.3848,8.7822a.68.68,0,0,1-.5449.0381.67.67,0,0,1-.4013-.3584c-2.4512-5.1562-6.1651-13.48-9.9639-23.9219-.0889-.2339-8.9119-23.5625-14.7034-42.7556l-.0012-.0046c-.0085-.0279-.0176-.0564-.0259-.0845-.0151-.05-.0361-.0977-.0527-.1475-.0376-.1132-.0752-.2265-.12-.3359-.0339-.0835-.073-.1628-.11-.2436-.0364-.0779-.0708-.1568-.1106-.2325-.0581-.1115-.1223-.2182-.1875-.3244-.0242-.0393-.0464-.08-.0716-.1184-.0866-.1338-.1794-.2618-.2763-.3863l-.02-.0268a5.5019,5.5019,0,0,0-4.6484-2.0843c-.0237.0013-.0469,0-.07.0013l-.0206.0024c-.1276.01-.2558.0286-.384.0479-.063.0092-.1267.0156-.189.0271-.0791.0149-.1579.0358-.237.0542-.11.0253-.2207.05-.3281.0817l-.0259.0064c-.0386.0117-.0745.0278-.1126.04-.13.0422-.2588.0857-.384.1369-.0566.0232-.11.05-.1658.075-.1076.0483-.2153.0967-.3191.1516-.0713.0376-.1391.08-.2082.12-.0828.0486-.1658.0959-.2456.1487s-.1546.1084-.2307.1643c-.0655.0481-.1316.0952-.1949.1462-.0788.0635-.1538.1311-.2285.1987-.0559.05-.1125.1-.1662.1521-.0716.07-.1389.1436-.2066.2173-.053.0576-.1064.1145-.1567.1746-.0593.07-.1145.1438-.17.2173-.0527.0691-.1057.1379-.155.21-.0464.0676-.0891.1374-.1323.207-.0515.0823-.1028.1648-.15.25-.0351.064-.0666.13-.0993.1948-.0472.094-.094.1878-.1358.2845-.0273.0634-.051.1284-.0759.1931-.0391.1-.0774.2-.11.303-.0224.0693-.0405.14-.06.21-.0276.0989-.0552.1973-.0772.2983-.0185.084-.0315.17-.0459.2547-.0149.0881-.0312.1758-.0417.2654-.0125.1049-.0183.2107-.0249.3164-.0044.073-.0113.145-.0127.2185-.0025.1191.0029.239.0083.3591.0024.0537,0,.1062.0036.16l1.8626,25.3671c-.1589-.0139-.3193-.0244-.4819-.0244H374.82l1.7119-25.375a5.5,5.5,0,1,0-10.9746-.74l-4.7615,70.5732H345.6471c8.0933-29.9787,7.3743-51.602,2.4087-67.1811l2.17-20.648a34.7123,34.7123,0,0,1,2.8-10.69c5.9414-13.1284,17.9793-17.2983,23.91-18.5815a34.4688,34.4688,0,0,0,54.3374.6877l.1155.0286c7.3418,2.1162,21.0068,6.0556,27.4121,27.32,7.7793,25.8193,16.9268,54.8818,25.7891,74.6738A.6953.6953,0,0,1,484.2682,383.7754Z"/><path d="M278.6707,64.9072c-9.82-.3271-18.2857,4.34-22.0835,12.1621a.667.667,0,0,1-1.1748-.0009c-3.795-7.8145-12.25-12.4571-22.0738-12.1612-12.4453.3955-22.57,11.0635-22.57,23.7813v.915a41.6077,41.6077,0,0,0,16.4072,33l23.6875,17.9326a9.4156,9.4156,0,0,0,11.4493-.0761l22.9506-17.8623a41.1251,41.1251,0,0,0,15.9688-32.6631V88.6963C301.2317,75.9834,291.1111,65.3115,278.6707,64.9072Z"/><path d="M256,184.9961a85.0461,85.0461,0,0,0,70.685-132.32,6,6,0,1,0-9.9687,6.6806,72.9691,72.9691,0,1,1-24.2847-22.71,6,6,0,1,0,5.9951-10.3945A85.04,85.04,0,1,0,256,184.9961Z"/></g></svg>