<svg id="Layer_1" data-name="Layer 1" xmlns="http://www.w3.org/2000/svg" viewBox="0 0 64 64"><defs><style>.cls-1{fill:#d9ebf4;}.cls-2{fill:#c6e2f4;}.cls-23,.cls-26,.cls-3{fill:none;stroke-linecap:round;}.cls-3{stroke:#041256;stroke-width:2px;}.cls-23,.cls-3{stroke-linejoin:round;}.cls-4{fill:#58abdd;}.cls-5{fill:#4e87c6;}.cls-6{fill:#1d8265;}.cls-7{fill:#125e4f;}.cls-8{fill:#428ad1;}.cls-9{fill:#2da07c;}.cls-10{fill:#41e098;}.cls-11{fill:#6abcef;}.cls-12{fill:#2d9e7b;}.cls-13{fill:#a6e1ff;}.cls-14{fill:#46cc9f;}.cls-15{fill:#5bd3ab;}.cls-16{fill:#d1616f;}.cls-17{fill:#ba4f61;}.cls-18{fill:#a04256;}.cls-19{fill:#80f9ea;}.cls-20{fill:#6fc8dd;}.cls-21{fill:#f495a6;}.cls-22{fill:#dae4ef;}.cls-23{stroke:#a04256;stroke-width:0.5px;}.cls-24{fill:#fff;}.cls-25{fill:#bad8e5;}.cls-26{stroke:#a6e1ff;stroke-miterlimit:10;stroke-width:0.75px;}</style></defs><title>location, pointer, map, destination, pin</title><path class="cls-1" d="M12.84,11.16h2.43a.76.76,0,0,0,0-1.52H14.05a.46.46,0,0,1-.46-.46.46.46,0,0,0-.46-.46H10.71a.76.76,0,1,0,0,1.52h1.21a.46.46,0,0,1,.46.46A.46.46,0,0,0,12.84,11.16Z"/><path class="cls-1" d="M10.87,12.35H9.46a.26.26,0,0,0-.26.26.26.26,0,0,1-.26.26h-.7a.44.44,0,1,0,0,.88H9.64a.26.26,0,0,0,.26-.26.26.26,0,0,1,.26-.26h.7a.44.44,0,0,0,0-.88Z"/><path class="cls-1" d="M15.59,4.65H14.18a.26.26,0,0,0-.26.26.26.26,0,0,1-.26.26h-.7a.44.44,0,0,0,0,.88h1.41a.26.26,0,0,0,.26-.26.26.26,0,0,1,.26-.26h.7a.44.44,0,0,0,0-.88Z"/><circle class="cls-1" cx="12.99" cy="19.25" r="0.63"/><circle class="cls-1" cx="12.99" cy="14.21" r="0.61"/><circle class="cls-1" cx="16.03" cy="15.45" r="0.98"/><circle class="cls-1" cx="16.62" cy="7.84" r="0.32"/><circle class="cls-1" cx="6.62" cy="15.45" r="0.39"/><circle class="cls-1" cx="9.55" cy="16.67" r="1.02"/><circle class="cls-1" cx="5.59" cy="12.7" r="0.35"/><path class="cls-1" d="M34.8,8.32h0a.5.5,0,0,1,.5-.5H38a.83.83,0,0,1,.83.83h0a.83.83,0,0,1-.83.83H36.64a.5.5,0,0,0-.5.5h0a.5.5,0,0,1-.5.5H33a.83.83,0,0,1-.83-.83h0A.83.83,0,0,1,33,8.82H34.3A.5.5,0,0,0,34.8,8.32Z"/><path class="cls-1" d="M39.64,12.09h0a.29.29,0,0,0-.29-.29H37.8a.48.48,0,0,0-.48.48h0a.48.48,0,0,0,.48.48h.77a.29.29,0,0,1,.29.29h0a.29.29,0,0,0,.29.29H40.7a.48.48,0,0,0,.48-.48h0a.48.48,0,0,0-.48-.48h-.77A.29.29,0,0,1,39.64,12.09Z"/><circle class="cls-1" cx="36.34" cy="20" r="0.7"/><circle class="cls-1" cx="35.46" cy="13.84" r="0.67"/><circle class="cls-1" cx="32.13" cy="15.21" r="1.08"/><circle class="cls-1" cx="31.48" cy="6.84" r="0.35"/><circle class="cls-1" cx="42.47" cy="15.21" r="0.43"/><circle class="cls-1" cx="39.25" cy="16.55" r="1.12"/><circle class="cls-1" cx="43.61" cy="12.18" r="0.39"/><path class="cls-2" d="M3,59.35V32.07a.89.89,0,0,1,.89-.89h.93a.89.89,0,0,1,.89.89v2.27a.89.89,0,0,0,.89.89h3a.89.89,0,0,1,.89.89V46.5a.89.89,0,0,0,.89.89h1.85a.89.89,0,0,1,.89.89v6.54a.89.89,0,0,0,.89.89h.9a.89.89,0,0,0,.89-.89V53.68a.89.89,0,0,1,.89-.89h.81a.89.89,0,0,0,.89-.89V50.37a.89.89,0,0,1,.89-.89H25.1a.89.89,0,0,0,.89-.89v-.91a.89.89,0,0,1,.89-.89h15.4a.89.89,0,0,1,.63.26l4.14,4.14a.89.89,0,0,0,.63.26h1.24a.89.89,0,0,1,.89.89v3a.89.89,0,0,0,.89.89h.51a.89.89,0,0,0,.89-.89v-.52a.89.89,0,0,1,.89-.89h.65a.89.89,0,0,0,.89-.89.89.89,0,0,1,.89-.89h4.63A.89.89,0,0,1,61,53v6.31Z"/><line class="cls-3" x1="3" y1="59.35" x2="61" y2="59.35"/><path class="cls-4" d="M54.76,59.35H9.2A6,6,0,0,1,3.48,51.6L10,30.25A6,6,0,0,1,15.76,26H48.23A6,6,0,0,1,54,30.26l6.53,21.35A6,6,0,0,1,54.76,59.35Z"/><path class="cls-5" d="M34.68,39.63h5.24a1.2,1.2,0,0,0,.85-.35L49,31.05a1.2,1.2,0,0,0-.66-2,5.86,5.86,0,0,0-.88-.07H35.37v4.62A2.71,2.71,0,0,1,33.88,36L30,37.93a2.16,2.16,0,0,0-1.19,1.93h0A2.16,2.16,0,0,0,31,42h1.31a1.2,1.2,0,0,0,1.2-1.2h0A1.2,1.2,0,0,1,34.68,39.63Z"/><path class="cls-5" d="M7.36,39,4.31,48.9H15A2,2,0,0,0,16.65,48l2.07-2.88a2,2,0,0,1,1.66-.85h.52a2,2,0,0,0,2-1.67l.4-2.15a2,2,0,0,0-1.28-2.29l-2.8-1.08a2,2,0,0,0-.74-.14h-1a2,2,0,0,1-1.93-1.37,2,2,0,0,0-1.93-1.37H10.58Z"/><path class="cls-6" d="M35.45,36.71h5.24a1.2,1.2,0,0,0,.85-.35l8.23-8.23a1.2,1.2,0,0,0-.66-2,5.84,5.84,0,0,0-.88-.07H36.14v4.62a2.71,2.71,0,0,1-1.5,2.42L30.78,35a2.16,2.16,0,0,0-1.19,1.93h0a2.16,2.16,0,0,0,2.16,2.16h1.31a1.2,1.2,0,0,0,1.2-1.2h0A1.2,1.2,0,0,1,35.45,36.71Z"/><path class="cls-7" d="M49.47,26.21l-7.93,7.93a1.2,1.2,0,0,1-.85.35H35.45a1.2,1.2,0,0,0-1.2,1.2,1.2,1.2,0,0,1-1.2,1.2H31.75a2.15,2.15,0,0,1-1.85-1.06,2.16,2.16,0,0,0,1.85,3.27h1.31a1.2,1.2,0,0,0,1.2-1.2,1.2,1.2,0,0,1,1.2-1.2h5.24a1.2,1.2,0,0,0,.85-.35l8.23-8.23A1.2,1.2,0,0,0,49.47,26.21Z"/><path class="cls-6" d="M5.07,46.43H14a2,2,0,0,0,1.66-.85l2.07-2.88a2,2,0,0,1,1.66-.85h.52a2,2,0,0,0,2-1.67l.4-2.15a2,2,0,0,0-1.28-2.29l-2.8-1.08a2.05,2.05,0,0,0-.74-.14h-1a2,2,0,0,1-1.93-1.37h0a2,2,0,0,0-1.93-1.37H9.58Z"/><path class="cls-8" d="M60.43,51.45a6,6,0,0,1-5.68,4.1H9.2a6,6,0,0,1-5.68-4.09l0,.15A6,6,0,0,0,9.2,59.35H54.76a6,6,0,0,0,5.72-7.74Z"/><path class="cls-6" d="M55.7,36l-8.82,8.82a5.14,5.14,0,0,1-3.63,1.5H40.2a5.12,5.12,0,0,0-3.62,1.5l-2.94,2.94a5.12,5.12,0,0,0-1.5,3.62v5H54.76a6,6,0,0,0,5.72-7.74Z"/><path class="cls-9" d="M33.1,56.71a5.12,5.12,0,0,1,1.5-3.62l2.94-2.94a5.12,5.12,0,0,1,3.62-1.5h3.05a5.14,5.14,0,0,0,3.63-1.5l8.63-8.63L55.7,36l-8.82,8.82a5.14,5.14,0,0,1-3.63,1.5H40.2a5.12,5.12,0,0,0-3.62,1.5l-2.94,2.94a5.12,5.12,0,0,0-1.5,3.62v5h1Z"/><path class="cls-7" d="M60.48,51.61l0-.16a6,6,0,0,1-5.68,4.1H32.13v3.8H54.76a6,6,0,0,0,5.72-7.74Z"/><path class="cls-10" d="M60.48,51.61,54,30.26a6,6,0,0,0-4.47-4.09,6,6,0,0,1,2,2.88L58,50.41a6,6,0,0,1-5.72,7.74H6.69A6,6,0,0,1,5.43,58,5.92,5.92,0,0,0,9.2,59.35H54.76A6,6,0,0,0,60.48,51.61Z"/><path class="cls-3" d="M55.7,36l-8.82,8.82a5.14,5.14,0,0,1-3.63,1.5H40.2a5.12,5.12,0,0,0-3.62,1.5l-2.94,2.94a5.12,5.12,0,0,0-1.5,3.62v5H54.76a6,6,0,0,0,5.72-7.74Z"/><path class="cls-11" d="M6.29,54.18l7-22.73a4,4,0,0,1,3.86-2.85H51a6,6,0,0,1,2.42.53A6,6,0,0,0,48.23,26H15.76A6,6,0,0,0,10,30.25L3.48,51.6a6,6,0,0,0,3.3,7.22A5.93,5.93,0,0,1,6.29,54.18Z"/><polygon class="cls-4" points="10.58 34.24 7.36 38.97 5.8 44.05 4.31 48.9 7.91 48.9 12.42 34.24 10.58 34.24"/><path class="cls-9" d="M49.29,28.6l.48-.48a1.2,1.2,0,0,0-.63-2h0a5.85,5.85,0,0,0-.86-.06H36.14V28.6Z"/><path class="cls-12" d="M12.63,31.77H9.58L7.76,37.68,5.07,46.43h3.6l4.48-14.58A2,2,0,0,0,12.63,31.77Z"/><path class="cls-4" d="M3.29,52.47c0,.15,0,.3-.05.46s0,.15,0,.23,0,.3,0,.45,0,.13,0,.2a5.89,5.89,0,0,0,.07.6c0,.08,0,.15.05.23s.05.24.09.36.06.19.09.29l.1.27c0,.11.08.21.13.31l.09.18a6,6,0,0,0,.75,1.15l.05.06c.11.12.22.24.33.36l0,0a6,6,0,0,0,1.75,1.19h0a5.93,5.93,0,0,1-.62-4.13,6,6,0,0,1-2.63-3.25l0,.15a6.09,6.09,0,0,0-.16.66C3.31,52.33,3.3,52.4,3.29,52.47Z"/><path class="cls-13" d="M4.9,53.23l6.7-21.81a5.35,5.35,0,0,1,5.11-3.78H49.65a5.94,5.94,0,0,1,3.69,1.29A6,6,0,0,0,48.23,26H15.76A6,6,0,0,0,10,30.25L3.48,51.6a6,6,0,0,0,2,6.43A5.92,5.92,0,0,1,4.9,53.23Z"/><polygon class="cls-11" points="10.58 34.24 7.36 38.97 6.71 41.1 4.82 47.23 4.31 48.9 6.23 48.9 10.73 34.24 10.58 34.24"/><path class="cls-14" d="M49.65,27.65c.13,0,.26,0,.39,0a1.19,1.19,0,0,0-.89-1.58l-.08,0a5.83,5.83,0,0,0-.84-.06H36.14v1.63Z"/><path class="cls-3" d="M35.45,36.71h5.24a1.2,1.2,0,0,0,.85-.35l8.23-8.23a1.2,1.2,0,0,0-.66-2,5.84,5.84,0,0,0-.88-.07H36.14v4.62a2.71,2.71,0,0,1-1.5,2.42L30.78,35a2.16,2.16,0,0,0-1.19,1.93h0a2.16,2.16,0,0,0,2.16,2.16h1.31a1.2,1.2,0,0,0,1.2-1.2h0A1.2,1.2,0,0,1,35.45,36.71Z"/><polygon class="cls-15" points="9.58 31.77 8.62 34.89 7.76 37.67 5.07 46.43 6.99 46.43 11.49 31.77 9.58 31.77"/><path class="cls-7" d="M22.13,36.71l-.29,1.58a2,2,0,0,1-2,1.67h-.52a2,2,0,0,0-1.66.85l-2.07,2.88a2,2,0,0,1-1.66.85H5.65l-.58,1.89H14a2,2,0,0,0,1.66-.85l2.07-2.88a2,2,0,0,1,1.66-.85h.52a2,2,0,0,0,2-1.67l.4-2.15A2,2,0,0,0,22.13,36.71Z"/><path class="cls-3" d="M5.07,46.43H14a2,2,0,0,0,1.66-.85l2.07-2.88a2,2,0,0,1,1.66-.85h.52a2,2,0,0,0,2-1.67l.4-2.15a2,2,0,0,0-1.28-2.29l-2.8-1.08a2.05,2.05,0,0,0-.74-.14h-1a2,2,0,0,1-1.93-1.37h0a2,2,0,0,0-1.93-1.37H9.58Z"/><path class="cls-3" d="M54.76,59.35H9.2A6,6,0,0,1,3.48,51.6L10,30.25A6,6,0,0,1,15.76,26H48.23A6,6,0,0,1,54,30.26l6.53,21.35A6,6,0,0,1,54.76,59.35Z"/><path class="cls-16" d="M29.05,21.31a6.58,6.58,0,1,0-10.79,5.06,13,13,0,0,1,3.24,4h0a1.09,1.09,0,0,0,1.94,0h0a13,13,0,0,1,3.25-4A6.56,6.56,0,0,0,29.05,21.31Z"/><path class="cls-17" d="M21.5,30.34a1.09,1.09,0,0,0,1.94,0h0a13,13,0,0,1,3.25-4c.13-.1.24-.22.36-.33H17.9c.12.12.24.23.37.34a13,13,0,0,1,3.24,4Z"/><path class="cls-17" d="M24.15,19.78,20.87,22.9,21,23a5.19,5.19,0,0,1,1.45,3.6v4.3a1.08,1.08,0,0,0,1-.57,11.58,11.58,0,0,1,3-3.82l.15-.12a2.73,2.73,0,0,0,.15-4Z"/><path class="cls-18" d="M22.39,26a5.13,5.13,0,0,1,.06.61v4.3h0a1.13,1.13,0,0,0,.27,0h0a1.09,1.09,0,0,0,.21-.08l.06,0a1.06,1.06,0,0,0,.15-.11l.09-.07a1.13,1.13,0,0,0,.1-.14,1.08,1.08,0,0,0,.09-.13h0l.08-.14a11.34,11.34,0,0,1,2.94-3.66l.15-.12A2.58,2.58,0,0,0,27,26Z"/><path class="cls-19" d="M25.45,15.44A6.57,6.57,0,0,1,26,25.94a13,13,0,0,0-3.25,4h0a1.08,1.08,0,0,1-1.14.57,1.09,1.09,0,0,0,1.83-.16,13,13,0,0,1,3.25-4,6.58,6.58,0,0,0-1.24-10.92Z"/><path class="cls-20" d="M27.55,24A6.6,6.6,0,0,1,26,25.94a13,13,0,0,0-3.25,4h0a1,1,0,0,1-.3.35v.64h.2l.13,0,.15-.06.1,0,.15-.11.08-.07a1.11,1.11,0,0,0,.13-.17l.06-.09c.15-.3.32-.58.5-.86a10.38,10.38,0,0,1,2.52-2.94l.15-.12A2.63,2.63,0,0,0,27.55,24Z"/><path class="cls-21" d="M22.26,30.29a15.13,15.13,0,0,0-3-3.52,6.56,6.56,0,0,1-2.23-5q0-.23,0-.46a.91.91,0,0,0-.63-1l-.4-.12a6.37,6.37,0,0,0-.09,1,6.56,6.56,0,0,0,2.43,5.13,12,12,0,0,1,3.18,3.93h0a1.08,1.08,0,0,0,1.14.57l0,0Z"/><path class="cls-21" d="M22.21,14.73a6.65,6.65,0,0,0-6,4.55l.41.12a.9.9,0,0,0,1.07-.47,6.54,6.54,0,0,1,8.13-3.27A6.55,6.55,0,0,0,22.21,14.73Z"/><path class="cls-3" d="M29.05,21.31a6.58,6.58,0,1,0-10.79,5.06,13,13,0,0,1,3.24,4h0a1.09,1.09,0,0,0,1.94,0h0a13,13,0,0,1,3.25-4A6.56,6.56,0,0,0,29.05,21.31Z"/><circle class="cls-22" cx="22.47" cy="21.31" r="2.26"/><circle class="cls-23" cx="22.47" cy="21.31" r="2.26"/><circle class="cls-24" cx="22.47" cy="21.31" r="1.11"/><path class="cls-16" d="M58.93,35.6A9.58,9.58,0,1,0,43.23,43a18.84,18.84,0,0,1,4.71,5.78h0a1.59,1.59,0,0,0,2.83,0h0a18.93,18.93,0,0,1,4.72-5.79A9.55,9.55,0,0,0,58.93,35.6Z"/><path class="cls-17" d="M51.8,33.37,47,37.91l.19.2a7.56,7.56,0,0,1,2.11,5.23v6.25a1.57,1.57,0,0,0,1.44-.83,16.85,16.85,0,0,1,4.41-5.56l.22-.17a4,4,0,0,0,.21-5.87Z"/><path class="cls-19" d="M53.69,27.06a9.56,9.56,0,0,1,.79,15.28,18.93,18.93,0,0,0-4.72,5.79h0A1.57,1.57,0,0,1,48.1,49a1.58,1.58,0,0,0,2.67-.23,18.93,18.93,0,0,1,4.72-5.79,9.57,9.57,0,0,0-1.8-15.89Z"/><path class="cls-20" d="M56.74,39.58a9.61,9.61,0,0,1-2.26,2.77,18.93,18.93,0,0,0-4.72,5.79h0a1.52,1.52,0,0,1-.44.51v.93h.09l.2,0,.18,0,.22-.09.15-.07a1.55,1.55,0,0,0,.21-.16l.12-.1a1.62,1.62,0,0,0,.18-.24,1.56,1.56,0,0,0,.09-.13c.22-.43.47-.85.73-1.26a15.1,15.1,0,0,1,3.66-4.27l.22-.17A3.83,3.83,0,0,0,56.74,39.58Z"/><path class="cls-21" d="M49,48.66a22,22,0,0,0-4.41-5.12,9.54,9.54,0,0,1-3.24-7.21q0-.34,0-.67a1.32,1.32,0,0,0-.92-1.39l-.58-.17a9.29,9.29,0,0,0-.13,1.46A9.55,9.55,0,0,0,43.32,43a17.44,17.44,0,0,1,4.62,5.71h0a1.57,1.57,0,0,0,1.65.83l0-.06Z"/><path class="cls-21" d="M49,26a9.68,9.68,0,0,0-8.7,6.61l.59.18a1.32,1.32,0,0,0,1.55-.69,9.51,9.51,0,0,1,11.82-4.76A9.53,9.53,0,0,0,49,26Z"/><path class="cls-3" d="M58.93,35.6A9.58,9.58,0,1,0,43.23,43a18.84,18.84,0,0,1,4.71,5.78h0a1.59,1.59,0,0,0,2.83,0h0a18.93,18.93,0,0,1,4.72-5.79A9.55,9.55,0,0,0,58.93,35.6Z"/><circle class="cls-22" cx="49.35" cy="35.6" r="3.28"/><circle class="cls-23" cx="49.35" cy="35.6" r="3.28"/><circle class="cls-24" cx="49.35" cy="35.6" r="1.61"/><ellipse class="cls-13" cx="22.47" cy="32.79" rx="1.24" ry="0.55"/><ellipse class="cls-10" cx="49.21" cy="52.43" rx="2.19" ry="0.97"/><circle class="cls-1" cx="51.66" cy="17.08" r="5.34"/><path class="cls-25" d="M51.66,11.75a5.31,5.31,0,0,0-1.25.16,5.28,5.28,0,0,0,6.42,6.42,5.28,5.28,0,0,0-5.17-6.58Z"/><path class="cls-26" d="M11.49,49.53a4.08,4.08,0,0,0,1.65-.32,4.4,4.4,0,0,0,3.3,0,4.4,4.4,0,0,0,3.3,0,4.08,4.08,0,0,0,1.65.32"/><path class="cls-26" d="M10.73,51.61a4.08,4.08,0,0,0,1.65-.32,3.66,3.66,0,0,0,1,.27"/><path class="cls-26" d="M14.72,51.56a3.66,3.66,0,0,0,1-.27,3.66,3.66,0,0,0,1,.27"/><path class="cls-26" d="M18,51.56a3.66,3.66,0,0,0,1-.27,4.08,4.08,0,0,0,1.65.32"/><path class="cls-26" d="M10,53.7a4.08,4.08,0,0,0,1.65-.32,4.4,4.4,0,0,0,3.3,0,4.4,4.4,0,0,0,3.3,0,4.08,4.08,0,0,0,1.65.32"/><path class="cls-26" d="M25.74,42.17a4.08,4.08,0,0,0,1.65-.32,4.4,4.4,0,0,0,3.3,0,4.4,4.4,0,0,0,3.3,0,4.08,4.08,0,0,0,1.65.32"/><path class="cls-26" d="M25,44.25a4.08,4.08,0,0,0,1.65-.32,3.66,3.66,0,0,0,1,.27"/><path class="cls-26" d="M29,44.2a3.66,3.66,0,0,0,1-.27,3.66,3.66,0,0,0,1,.27"/><path class="cls-26" d="M32.26,44.2a3.66,3.66,0,0,0,1-.27,4.08,4.08,0,0,0,1.65.32"/><path class="cls-26" d="M24.22,46.33A4.08,4.08,0,0,0,25.87,46a4.4,4.4,0,0,0,3.3,0,4.4,4.4,0,0,0,3.3,0,4.08,4.08,0,0,0,1.65.32"/></svg>